# xmcd
#
# Track frame offsets:
#        150
#        23086
#        45469
#        64506
#        87412
#
# Disc length: 1464 seconds
#
# Revision: 0
# Processed by: cddbd v1.5.1PL2 Copyright (c) Steve Scherf et al.
# Submitted via: ExactAudioCopy v0.95b3
#
DISCID=3305b605
DTITLE=Sowelu - Get Over
DYEAR=2005
DGENRE=JPop
TTITLE0=Get Over
TTITLE1=my love and your love
TTITLE2=Get Over(Radio Edit)
TTITLE3=Get Over(Instrumental)
TTITLE4=my love and your love(Instrumental)
EXTD=
EXTT0=
EXTT1=
EXTT2=
EXTT3=
EXTT4=
PLAYORDER=
